[b][color=black]Revolution 2012 S01E02 HDTV [x264] [mp4]-Sebastian[Ub3r]

Format                           : MPEG-4
Format profile                   : Base Media / Version 2
Codec ID                         : mp42
File size                        : 193 MiB
Duration                         : 42mn 41s
Overall bit rate                 : 633 Kbps
Encoded date                     : UTC 2012-09-25 18:37:11
Tagged date                      : UTC 2012-09-25 18:45:23

Video
ID                               : 1
Format                           : AVC
Format/Info                      : Advanced Video Codec
Format profile                   : Main@L3.0
Format settings, CABAC           : Yes
Format settings, ReFrames        : 4 frames
Format settings, GOP             : M=4, N=50
Codec ID                         : avc1
Codec ID/Info                    : Advanced Video Coding
Duration                         : 42mn 41s
Bit rate mode                    : Variable
Bit rate                         : 500 Kbps
Width                            : 640 pixels
Height                           : 352 pixels
Display aspect ratio             : 16:9
Frame rate mode                  : Variable
Frame rate                       : 23.976 fps
Minimum frame rate               : 23.974 fps
Maximum frame rate               : 23.981 fps
Color space                      : YUV
Chroma subsampling               : 4:2:0
Bit depth                        : 8 bits
Scan type                        : Progressive
Bits/(Pixel*Frame)               : 0.093
Stream size                      : 153 MiB (79%)
Writing library                  : x264 core 120
Encoded date                     : UTC 2012-09-25 18:37:11
Tagged date                      : UTC 2012-09-25 18:45:21

Audio
ID                               : 2
Format                           : AAC
Format/Info                      : Advanced Audio Codec
Format profile                   : LC
Codec ID                         : 40
Duration                         : 42mn 41s
Bit rate mode                    : Variable
Bit rate                         : 128 Kbps
Maximum bit rate                 : 171 Kbps
Channel(s)                       : 2 channels
Channel positions                : Front: L R
Sampling rate                    : 48.0 KHz
Compression mode                 : Lossy
Stream size                      : 39.1 MiB (20%)
Encoded date                     : UTC 2012-09-25 18:37:11
Tagged date                      : UTC 2012-09-25 18:45:20

Screenshots[/color][/b]
[img]http://imageshack.us/a/img801/1784/revolution2012s01e02hdt.jpg[/img]

[img]http://kastatic.com/i2/users/133df62bbf28e62494bb17fe11078f1a.gif[/img][img]http://kastatic.com/i2/users/133df62bbf28e62494bb17fe11078f1a.gif[/img]